<svg width="48" height="48" viewBox="0 0 48 48" fill="none" xmlns="http://www.w3.org/2000/svg">
<path d="M47.5946 26.4774C47.6724 25.6645 47.7503 24.8516 47.7503 24C47.7503 11.1871 36.8537 0.348389 23.9724 0.348389C11.0911 0.348389 0.19458 11.1871 0.19458 24C0.19458 36.8129 11.0911 47.6516 23.9724 47.6516C34.2852 47.6516 43.3138 40.7226 46.5049 31.3936H45.3374H44.0532H42.3409H30.4714V14.2839H30.2768H27.864H9.3399V16.529H12.8424H23.3498H27.864V33.7161H30.4714H42.3409H43.0025C39.3833 40.5677 32.1059 45.3677 23.9724 45.3677C12.3365 45.3677 2.49064 35.5742 2.49064 24C2.49064 12.4258 12.3365 2.63226 23.9724 2.63226C35.6084 2.63226 45.4542 12.4258 45.4542 24C45.4542 24.8516 45.4153 25.6645 45.2985 26.4774H47.5946Z" fill="#EC1824"/>
<path d="M9.30096 18.8129V33.7161H25.1788V31.471H11.9084V24.6193H23.7778V22.4903H11.9084V18.8129H9.30096Z" fill="#EC1824"/>
</svg>
