<svg width="18" height="18" viewBox="0 0 18 18" fill="none" xmlns="http://www.w3.org/2000/svg">
<path d="M9.00001 2.19995C11.2 2.19995 11.5 2.19995 12.4 2.19995C13.2 2.19995 13.6 2.39995 13.9 2.49995C14.3 2.69995 14.6 2.79995 14.9 3.09995C15.2 3.39995 15.4 3.69995 15.5 4.09995C15.6 4.39995 15.7 4.79995 15.8 5.59995C15.8 6.49995 15.8 6.69995 15.8 8.99995C15.8 11.3 15.8 11.5 15.8 12.4C15.8 13.2 15.6 13.6 15.5 13.9C15.3 14.3 15.2 14.6 14.9 14.9C14.6 15.2 14.3 15.4 13.9 15.5C13.6 15.6 13.2 15.7 12.4 15.8C11.5 15.8 11.3 15.8 9.00001 15.8C6.70001 15.8 6.50001 15.8 5.60001 15.8C4.80001 15.8 4.40001 15.6 4.10001 15.5C3.70001 15.3 3.40001 15.2 3.10001 14.9C2.80001 14.6 2.60001 14.3 2.50001 13.9C2.40001 13.6 2.30001 13.2 2.20001 12.4C2.20001 11.5 2.20001 11.3 2.20001 8.99995C2.20001 6.69995 2.20001 6.49995 2.20001 5.59995C2.20001 4.79995 2.40001 4.39995 2.50001 4.09995C2.70001 3.69995 2.80001 3.39995 3.10001 3.09995C3.40001 2.79995 3.70001 2.59995 4.10001 2.49995C4.40001 2.39995 4.80001 2.29995 5.60001 2.19995C6.50001 2.19995 6.80001 2.19995 9.00001 2.19995ZM9.00001 0.699951C6.70001 0.699951 6.50001 0.699951 5.60001 0.699951C4.70001 0.699951 4.10001 0.899952 3.60001 1.09995C3.10001 1.29995 2.60001 1.59995 2.10001 2.09995C1.60001 2.59995 1.40001 2.99995 1.10001 3.59995C0.900013 4.09995 0.800012 4.69995 0.700012 5.59995C0.700012 6.49995 0.700012 6.79995 0.700012 8.99995C0.700012 11.3 0.700012 11.5 0.700012 12.4C0.700012 13.3 0.900013 13.9 1.10001 14.4C1.30001 14.9 1.60001 15.4 2.10001 15.9C2.60001 16.4 3.00001 16.6 3.60001 16.9C4.10001 17.1 4.70001 17.1999 5.60001 17.2999C6.50001 17.2999 6.80001 17.2999 9.00001 17.2999C11.2 17.2999 11.5 17.2999 12.4 17.2999C13.3 17.2999 13.9 17.1 14.4 16.9C14.9 16.7 15.4 16.4 15.9 15.9C16.4 15.4 16.6 15 16.9 14.4C17.1 13.9 17.2 13.3 17.3 12.4C17.3 11.5 17.3 11.2 17.3 8.99995C17.3 6.79995 17.3 6.49995 17.3 5.59995C17.3 4.69995 17.1 4.09995 16.9 3.59995C16.7 3.09995 16.4 2.59995 15.9 2.09995C15.4 1.59995 15 1.39995 14.4 1.09995C13.9 0.899952 13.3 0.799951 12.4 0.699951C11.5 0.699951 11.3 0.699951 9.00001 0.699951Z" fill="white"/>
<path d="M9.00001 4.69995C6.60001 4.69995 4.70001 6.59995 4.70001 8.99995C4.70001 11.4 6.60001 13.3 9.00001 13.3C11.4 13.3 13.3 11.4 13.3 8.99995C13.3 6.59995 11.4 4.69995 9.00001 4.69995ZM9.00001 11.8C7.50001 11.8 6.20001 10.6 6.20001 8.99995C6.20001 7.49995 7.40001 6.19995 9.00001 6.19995C10.5 6.19995 11.8 7.39995 11.8 8.99995C11.8 10.5 10.5 11.8 9.00001 11.8Z" fill="white"/>
<path d="M13.4 5.59995C13.9523 5.59995 14.4 5.15224 14.4 4.59995C14.4 4.04767 13.9523 3.59995 13.4 3.59995C12.8477 3.59995 12.4 4.04767 12.4 4.59995C12.4 5.15224 12.8477 5.59995 13.4 5.59995Z" fill="white"/>
</svg>
