<svg width="14" height="14" viewBox="0 0 14 14" fill="none" xmlns="http://www.w3.org/2000/svg">
<path fill-rule="evenodd" clip-rule="evenodd" d="M2.12132 13.435C1.7308 13.8256 1.09763 13.8256 0.707107 13.435C0.316583 13.0445 0.316583 12.4113 0.707107 12.0208L5.6569 7.07102L0.7072 2.12132C0.316676 1.7308 0.316676 1.09763 0.7072 0.707107C1.09772 0.316583 1.73089 0.316583 2.12141 0.707107L7.07111 5.65681L12.0208 0.707104C12.4113 0.31658 13.0445 0.31658 13.435 0.707104C13.8256 1.09763 13.8256 1.73079 13.435 2.12132L8.48533 7.07102L13.4351 12.0208C13.8256 12.4113 13.8256 13.0445 13.4351 13.435C13.0446 13.8256 12.4114 13.8256 12.0209 13.435L7.07111 8.48523L2.12132 13.435Z" fill="url(#paint0_linear_55_2598)"/>
<defs>
<linearGradient id="paint0_linear_55_2598" x1="14.1422" y1="14.1421" x2="-1.25143" y2="12.6151" gradientUnits="userSpaceOnUse">
<stop stop-color="#F03E1D"/>
<stop offset="1" stop-color="#F08F1D"/>
</linearGradient>
</defs>
</svg>
